{"accessors" : [{"bufferView" : 0, "byteOffset" : 0, "componentType" : 5123, "count" : 2016, "type" : "SCALAR", "max" : [1443], "min" : [0]}, {"bufferView" : 1, "byteOffset" : 0, "componentType" : 5126, "count" : 1444, "type" : "VEC3", "max" : [-2.4682788848876953, 1.2121700048446655, 3.1976280212402344], "min" : [-2.7117409706115723, -0.8744680285453796, -1.8634480237960815], "name" : "POSITION"}, {"bufferView" : 1, "byteOffset" : 12, "componentType" : 5126, "count" : 1444, "type" : "VEC2", "max" : [0.8848000168800354, -0.06589999794960022], "min" : [0.1152999997138977, -0.9437999725341797], "name" : "TEXCOORD_0"}, {"bufferView" : 1, "byteOffset" : 20, "componentType" : 5126, "count" : 1444, "type" : "VEC3", "max" : [1.0000044107437134, 0.9986928701400757, 1.0000044107437134], "min" : [-1.0000044107437134, -1.0000041723251343, -0.9998615980148315], "name" : "NORMAL"}], "asset" : {"generator" : "Aspose.3D 22.5.1", "version" : "2.0"}, "buffers" : [{"uri" : "data:application/octet-stream;base64,", "byteLength" : 68552}], "bufferViews" : [{"buffer" : 0, "byteOffset" : 0, "byteLength" : 4032, "target" : 34963}, {"buffer" : 0, "byteOffset" : 4036, "byteLength" : 64512, "byteStride" : 32, "target" : 34962}], "meshes" : [{"primitives" : [{"attributes" : {"POSITION" : 1, "TEXCOORD_0" : 2, "NORMAL" : 3}, "indices" : 0, "mode" : 4}], "name" : ""}], "nodes" : [{"mesh" : 0, "name" : "fish_Cube"}], "scene" : 0, "scenes" : [{"nodes" : [0]}]}